<svg width="44" height="41" viewBox="0 0 44 41" fill="none" xmlns="http://www.w3.org/2000/svg">
<path fill-rule="evenodd" clip-rule="evenodd" d="M16.2459 0.283203C17.035 0.286575 17.449 0.903416 17.5968 1.10652C17.6656 1.3117 17.7226 1.51818 17.795 1.94022C17.8054 2.02478 17.81 2.0764 17.81 2.16304C17.81 2.50725 17.726 2.70361 17.5986 3.02397C17.4884 3.30126 17.4399 3.47583 17.2368 3.69606C16.9403 4.01641 16.7302 4.11316 16.6438 4.23041C16.6044 4.28566 16.2996 4.56814 16.2116 4.69732C16.1237 4.82806 15.7808 5.36267 15.6425 5.65501C15.5292 5.89469 15.5411 6.29286 15.1396 6.8477C14.9761 7.07493 14.8363 7.18725 14.7489 7.45391C14.661 7.7229 14.6625 7.90033 14.5193 8.14286C14.2561 8.58591 14.0148 8.77734 13.7975 9.24243C13.5889 9.69222 13.5806 9.98326 13.441 10.4556C13.2929 10.95 12.9534 11.1464 12.9018 11.6566C12.874 11.896 12.929 12.0371 12.9018 12.2805C12.8226 13.014 12.3142 13.2763 11.9503 13.9206C11.818 14.16 11.818 14.3359 11.7729 14.6083C11.7129 14.9888 11.6489 15.1958 11.5283 15.5626C11.3231 16.1794 11.3407 16.5654 11.2198 17.2033C11.1402 17.6217 11.0925 17.8611 11.0235 18.2795C10.989 18.4984 10.8595 18.6053 10.8595 18.8297L10.8616 19.0431C10.8616 19.1884 10.7716 19.2584 10.7636 19.4053C10.7376 19.7344 10.679 19.9152 10.6339 20.2408C10.4103 21.8843 10.105 22.7701 9.70679 24.3799C9.5623 24.962 9.56567 25.3083 9.43131 25.8888C9.33118 26.3218 9.2365 26.5625 9.20226 27.0073C9.17632 27.3604 9.17995 27.5567 9.15531 27.9098C9.126 28.3147 9.17269 28.5455 9.17269 28.952C9.17425 29.1865 9.15376 29.3193 9.12574 29.5517C8.95869 30.8767 8.66972 31.8469 8.64015 32.9498V33.6738L8.52784 34.7243V34.9036C8.53121 35.4618 8.01631 36.0047 7.52008 36.0047C6.84592 36.0029 6.63062 35.2968 6.52219 34.59C6.45475 34.1454 6.38264 33.8906 6.31882 33.444C6.28432 33.191 6.16371 33.0787 6.1069 32.8328C6.08952 32.7467 6.09471 32.6951 6.08252 32.6193C5.93572 31.9316 5.77843 31.2462 5.61067 30.5634C5.44362 29.905 5.26438 28.6786 5.23663 28.6493C5.20239 28.6145 5.11601 28.1388 5.0784 27.6706C5.05609 27.3949 4.95415 27.1036 4.93339 26.9816C4.91472 26.8465 4.96608 26.7697 4.94403 26.6354C4.88203 26.2629 4.86102 26.0491 4.77828 25.6839C4.69579 25.3327 4.65247 25.148 4.59385 24.7794V24.6313C4.54741 23.9869 4.34223 23.2308 4.22836 22.331C4.177 21.9261 4.19749 21.6882 4.16143 21.2817C4.13031 20.958 4.10618 20.5199 3.95495 20.46C3.7464 20.3788 3.67896 20.6786 3.60114 20.8353C3.43072 21.1767 3.33111 21.3663 3.18792 21.7229C2.98611 22.2329 2.9153 22.5361 2.68496 23.0357C2.42815 23.5888 2.33477 23.9179 2.1008 24.4829C1.91818 24.9278 1.62714 25.3254 1.20329 25.3363C0.844805 25.3444 0.479316 24.9464 0.462456 24.616C0.444817 24.3522 0.583075 23.761 0.762317 23.2788C0.951675 22.7743 1.09434 22.3761 1.20485 21.9644C1.32054 21.525 1.39291 21.4008 1.51353 20.9339C1.66683 20.3271 1.90288 19.924 2.06993 19.3209C2.26629 18.6094 2.45928 18.2836 2.69222 17.5827C2.80065 17.2536 2.8782 17.0175 2.9677 16.6798C3.01076 16.5216 3.17625 16.0438 3.27793 15.6287C3.35705 15.3047 3.41904 14.96 3.50542 14.8067C3.67585 14.5483 3.97026 14.4827 4.28387 14.4848C4.94403 14.4848 5.39019 14.8293 5.39693 15.4842C5.40238 15.92 5.33831 16.4373 5.41924 16.8795C5.42469 17.1815 5.46905 17.0624 5.51392 17.3568C5.69524 18.5132 5.77591 18.6613 5.86903 19.5726C5.9842 20.0981 6.0654 21.0459 6.0654 21.0459C6.0654 21.4166 6.20313 22.0539 6.28744 22.4142C6.36655 22.7688 6.28407 22.9105 6.41506 23.4648C6.51311 23.892 6.57537 24.4354 6.58756 24.5815C6.60131 24.7695 6.64774 25.128 6.68094 25.314C6.70273 25.4497 6.73074 25.7428 6.81868 26.198C6.92348 26.5096 6.88898 26.77 7.03398 27.1025C7.07003 27.1905 7.12321 27.2867 7.21996 27.2867C7.30245 27.2888 7.38027 27.1591 7.43682 27.0473C7.62981 26.6852 7.61269 26.4564 7.7525 26.0686C7.92837 25.5825 8.00412 25.2603 8.07986 24.7867C8.20722 24.244 8.33822 23.2137 8.58283 22.2264C8.83107 21.2285 8.92782 20.655 9.11874 19.6486C9.25155 18.9594 9.39266 18.5428 9.51198 17.8899C9.58228 17.5796 9.67358 17.4074 9.67203 17.0868C9.69797 16.9021 9.7514 16.7869 9.7872 16.5939C9.91819 15.9097 10.0373 15.4204 10.0959 14.836V14.6742C10.1265 14.5515 10.1716 14.2672 10.3249 13.9657C10.4852 13.4781 10.6401 13.2195 10.914 12.7852C11.321 12.1391 11.2603 11.6413 11.5015 10.9142C11.5363 10.859 11.7168 10.4611 11.7565 10.1493C11.7944 10.1098 11.8963 9.8891 11.9391 9.63204C12.0325 9.52569 12.4304 7.84871 12.7093 7.17195C12.723 7.00645 12.8647 6.79634 12.9404 6.56185C13.0079 6.33981 13.4039 5.32817 13.5881 4.70977C13.7435 4.21018 13.695 3.88931 13.9002 3.41202C14.1204 2.90205 14.2553 2.33164 14.3085 2.04942C14.4345 1.73581 14.5564 1.57369 14.7515 1.29484C15.0304 0.893559 15.2096 0.633126 15.6643 0.453625C15.877 0.372435 16.022 0.283203 16.2459 0.283203ZM29.6426 8.54336C30.1422 8.54466 30.6504 8.87928 30.6314 9.37913C30.6143 9.7786 30.4885 9.85824 30.4019 10.0027C30.2662 10.2268 30.3183 10.6006 29.5562 10.6748C29.1544 10.6727 28.6585 10.2128 28.6585 9.69404C28.6572 9.10833 29.0551 8.54336 29.6426 8.54336ZM34.5965 10.2543C35.2941 10.2561 35.6474 10.9417 35.6287 11.7015C35.6271 11.7723 35.6027 11.8104 35.6027 11.8826C35.6027 12.0755 35.6305 12.1824 35.6305 12.3754C35.6305 12.5546 35.5682 13.0317 35.5682 13.0317C35.5682 13.4021 35.4562 13.6057 35.4562 13.9759C35.4562 14.0809 35.487 14.1414 35.487 14.2464C35.487 14.4583 35.4562 14.5771 35.4388 14.7891C35.3957 15.3092 35.7488 15.3439 35.8658 15.5833C36.1161 15.699 36.2401 15.9159 36.5259 15.9159C36.6567 15.9177 37.0585 15.7473 37.1664 15.7107C37.6888 15.4801 37.9923 15.3561 38.4953 15.0889C39.274 14.6786 39.5946 14.346 40.3546 13.8708C40.8558 13.5502 41.3227 13.2332 41.919 13.2348C42.4134 13.2348 42.877 13.6034 43.0163 13.9442C43.0816 14.11 43.1763 14.3219 43.1763 14.5406C43.1763 14.6197 43.2113 14.6612 43.2113 14.739C43.2113 14.8529 43.2077 14.9198 43.1955 15.0334C43.1594 15.3558 43.1662 15.5538 43.0492 15.8536C42.927 16.1636 42.7185 16.2759 42.4407 16.4603C42.1325 16.6705 41.8804 16.7706 41.5035 16.7706H41.3053C41.0412 16.769 40.9248 16.6881 40.6594 16.6881C40.2425 16.6881 39.987 16.8567 39.6166 17.0427C39.1738 17.2614 38.6709 17.5477 38.5173 17.6219C38.0831 17.825 37.1975 18.2956 36.3843 18.7814C34.7164 19.7772 33.5639 20.3098 31.9486 21.3813C31.3235 21.7984 31.1533 22.0002 30.4895 22.3496C30.0813 22.5686 29.799 22.6116 29.4073 22.8583C28.7441 23.2746 28.3869 23.5678 27.8463 24.1384C27.3695 24.5433 26.685 25.2497 26.1045 25.5441C25.5665 25.8183 24.9499 26.3267 24.5657 26.7902C24.4866 26.8867 24.1108 27.1261 24.0607 27.6932L24.1834 29.2488C24.1849 29.5452 24.0472 29.7403 24.0664 30.0897L24.083 31.187C24.0851 31.5989 24.2228 31.6419 24.2228 31.9846L24.235 32.4225C24.235 32.9397 24.4397 33.2082 24.4482 33.7218C24.3987 34.2784 24.4552 34.523 24.469 35.0535C24.4848 35.5707 24.5603 35.8823 24.6863 36.3821C24.7777 36.7562 24.7465 36.9595 24.9097 37.3024C25.1463 37.8142 25.2511 38.0983 25.5045 38.6036C25.6731 38.941 25.7771 39.2183 25.7771 39.596C25.7787 40.3332 25.1893 40.7931 24.3987 40.8761C24.3279 40.8844 23.7232 40.8865 23.4765 40.7228C23.1684 40.5109 23.082 40.1109 23.0631 39.7405C23.0407 39.2253 23.0524 39.0326 22.9668 38.5068C22.972 38.2347 22.9009 38.0848 22.8306 37.8259C22.6737 37.2389 22.5637 36.9027 22.5494 36.2965C22.5341 35.5173 22.5967 35.0784 22.5967 34.2976C22.5637 33.7827 22.5238 33.4914 22.4618 32.9796C22.3959 32.473 22.2981 32.1781 22.2379 31.6736C22.1347 30.8209 22.1347 30.3431 22.0859 29.4853C22.0706 29.2747 22.0706 29.1629 22.0483 28.9543C22.0447 28.696 21.9344 28.572 21.764 28.5702C21.4104 28.5702 21.261 28.8285 20.9542 29.0031C20.528 29.2407 20.3093 29.47 19.9493 29.7989C19.2222 30.333 18.9187 30.6394 18.3309 31.2788C17.9439 31.6993 17.7613 31.9836 17.3317 32.3607C16.9854 32.6639 16.7597 32.8123 16.4293 33.1311C16.1567 33.3913 16.0638 33.6011 15.8555 33.9205C15.6674 34.2032 15.4887 34.3163 15.2319 34.5407C14.2994 35.3609 14.1201 35.33 12.9695 36.786C12.6315 37.2145 12.3822 37.2734 12.2974 37.4145C12.2805 37.4436 11.8995 37.7559 11.7617 37.8923C11.5721 38.0817 11.2808 38.3608 11.1153 38.4918C10.7488 38.7862 10.616 39.0497 10.2627 39.3618C9.86113 39.713 9.60951 39.9288 9.09773 40.0974C8.85986 40.1752 8.76726 40.2611 8.51383 40.2611C7.99011 40.2611 7.63318 39.7649 7.63188 39.2412C7.63188 38.9089 7.79738 38.7846 7.99374 38.5193C8.37272 38.0057 8.62926 37.7387 9.10836 37.3232C9.89433 36.6327 10.1719 36.0501 11.0435 35.4696C11.3467 35.2683 12.108 34.8478 12.3147 34.6888C12.6651 34.4196 12.9823 34.1097 13.2595 33.7656C13.3816 33.6084 13.5194 33.5672 13.6366 33.405C13.7606 33.2312 13.8021 33.1039 13.9487 32.9451C14.2791 32.5872 14.5308 32.4406 14.9323 32.1599C15.4545 31.7945 15.751 31.6323 16.2451 31.2274C16.5968 30.941 16.7501 30.6928 17.0311 30.3398C17.5893 29.6438 18.113 29.4578 18.8367 28.9307C19.1726 28.6861 19.2798 28.4498 19.5415 28.1277C19.6847 27.9497 20.163 27.3349 20.6411 26.9142C20.9594 26.6335 21.1544 26.4888 21.4766 26.2094C22.0309 25.7303 22.226 25.9028 22.2122 25.1687C22.2122 25.0411 22.2462 24.8658 22.0566 24.8795C21.8812 24.8953 21.8348 25.0432 21.7054 25.1584C21.4328 25.3999 21.2647 25.5189 20.9005 25.5132C20.1581 25.4997 19.6878 24.8367 19.6652 24.7916C19.4546 24.3763 19.1153 23.1133 19.1016 22.7239C19.1016 22.7239 19.0777 22.1997 19.1016 21.9019C19.1293 21.5279 19.2258 20.8457 19.4585 20.4392C19.5861 20.2151 19.7013 19.3259 19.8582 18.5059C19.9148 18.2076 20.0803 17.9044 20.177 17.6149C20.3148 17.1978 20.3817 16.9444 20.6333 16.5828C21.0782 15.947 21.3243 15.2282 22.1015 15.2319C22.2753 15.2319 22.3549 15.2749 22.5118 15.3507C22.6117 15.4044 22.7235 15.423 22.7839 15.5161C22.8371 15.6007 22.7876 15.6762 22.8685 15.7382C23.0148 15.8521 23.0817 16.0847 23.0817 16.3156C23.0817 16.4479 23.0817 16.5257 23.0664 16.6552C23.0081 17.1789 22.6911 17.3905 22.3616 17.8025C22.0426 18.204 21.965 18.3347 21.7637 18.8074C21.6001 19.1915 21.5601 19.5892 21.4794 19.9995C21.3848 20.4836 21.3015 20.9144 21.2688 21.249C21.2571 21.3554 21.245 21.4451 21.245 21.5556C21.245 21.6778 21.3363 21.9035 21.4582 21.9035C21.6512 21.9035 21.8239 21.6729 21.8893 21.4903C22.0444 21.0662 22.1635 20.8579 22.2703 20.4182C22.427 19.791 22.5287 19.5137 22.7733 18.9811C23.0778 18.3233 23.1092 17.9044 23.2866 17.3651C23.5004 16.7156 23.6848 16.1159 24.3704 16.1195C24.5893 16.1195 24.7323 16.1211 24.9216 16.2316C25.3512 16.471 25.4575 16.879 25.4575 17.3706C25.4529 17.5208 25.4495 17.61 25.4337 17.7599C25.2752 19.2296 24.9094 20.0224 24.7888 21.5022C24.7722 21.7108 24.7888 21.8347 24.7707 22.0436C24.7393 22.4142 24.6547 22.6153 24.6568 22.9893C24.6568 23.1566 24.6928 23.2492 24.7413 23.4064C24.7652 23.4902 24.793 23.5885 24.8806 23.5885C25.0513 23.5885 25.1239 23.4663 25.2666 23.375C25.5442 23.2012 25.7317 23.1426 26.0043 22.9634C26.4264 22.6861 26.6985 22.574 27.1052 22.2775C27.5208 21.9743 27.9457 21.5053 28.3762 21.2265C28.7988 20.9536 28.852 21.0231 29.3033 20.7391C29.8514 20.3923 30.1819 20.2135 30.6991 19.8237C31.0091 19.5858 31.0213 19.4187 31.4698 19.1674C31.9004 18.9228 32.1502 18.7918 32.5686 18.528C32.7925 18.3869 32.9045 18.2784 33.1426 18.1679C33.3408 18.0751 33.5372 17.9853 33.5372 17.7664C33.5351 17.5475 33.3994 17.4201 33.2869 17.2339C33.1268 16.9654 33.0975 16.8188 33.0959 16.5065C33.0959 16.3517 33.0905 16.2344 33.1151 16.0827C33.2129 15.4746 33.449 15.1543 33.4474 14.5393L33.4661 14.339C33.4368 14.3164 33.4215 14.2892 33.3836 14.2892C33.2975 14.2892 33.2474 14.3997 33.1943 14.4651C33.0352 14.6477 32.946 14.7616 32.7924 14.9476C32.5873 15.1903 32.455 15.3211 32.3167 15.6041C32.236 15.7589 32.2498 15.8692 32.186 16.0313C32.0446 16.3846 31.9432 16.5945 31.8257 16.9566C31.5035 17.9285 31.5263 19.2154 30.4994 19.2136C29.8255 19.212 29.2774 18.6764 29.2758 18.0022C29.2758 17.6131 29.3863 17.0206 29.4343 16.9771C29.5996 16.8378 29.4667 16.4658 29.5635 16.3792C29.6444 16.3122 29.6756 15.9709 29.6756 15.6368C29.6756 15.4814 29.7186 15.3901 29.7186 15.2368L29.7357 14.9872C29.7357 14.7063 29.8239 14.56 29.8649 14.284C29.9479 13.7243 30.094 13.5878 30.1404 13.4278C30.1663 13.3349 30.1596 13.2916 30.1925 13.2003C30.3728 12.6924 30.3318 12.3904 30.8278 11.972C31.0057 11.7946 31.1175 11.6053 31.3689 11.6053C31.9494 11.6066 32.11 11.9378 32.2597 11.9238C32.5318 11.8966 32.6218 11.688 32.815 11.4984C33.4007 10.9365 33.7763 10.2523 34.5965 10.2543ZM28.107 13.8384C28.6603 13.8384 29.2084 14.0436 29.1933 14.7512C29.1863 15.1704 28.9674 15.3735 28.819 15.7613C28.6948 16.0816 28.7589 16.2985 28.6733 16.6313C28.5415 17.126 28.3337 17.0743 28.3628 17.9114C28.3734 18.5389 28.3713 18.8935 28.3506 19.5207C28.3262 20.1238 27.8302 20.5492 27.2253 20.5583C26.7 20.5684 26.1623 19.9448 26.1639 19.4193C26.1639 19.0437 26.2707 18.8418 26.2936 18.4662C26.3107 18.1389 26.2866 17.9547 26.3089 17.6292C26.3413 17.0743 26.4933 16.7778 26.6655 16.2489C26.7517 15.9872 26.7462 15.8165 26.8463 15.5597C26.9898 15.1841 27.0308 14.9719 27.2531 14.6088C27.349 14.1982 27.6577 13.8363 28.107 13.8384ZM13.019 15.7906C13.3515 15.7906 13.5889 15.9543 13.7635 16.2417C13.9339 16.5247 14.0784 16.7 14.0784 17.031C14.0784 17.0896 14.0613 17.1226 14.0613 17.1791C14.0646 17.7475 13.5889 18.196 13.0203 18.196C12.4538 18.1918 12.04 17.6118 12.0416 17.1156C12.0416 16.9171 12.164 16.7913 12.1848 16.5742C12.2382 16.0627 12.5656 15.7885 13.019 15.7906ZM17.1782 17.3236C17.7602 17.3257 18.0189 17.8048 18.305 18.3127C18.5859 18.8055 18.8995 19.0727 18.8995 19.6343C18.8995 20.1995 18.5306 20.4823 18.0949 20.842C17.8482 21.0472 17.6329 21.0042 17.3089 21.1025C17.1605 21.1473 17.1299 21.3486 17.1107 21.5279C17.0765 21.8558 17.0521 22.0399 17.0453 22.3655C17.0316 22.9102 17.0508 23.2184 17.0521 23.7607C16.9955 24.0627 17.0453 24.2658 16.9042 24.5332C16.6786 24.962 16.3214 25.1742 15.836 25.1721C15.2724 25.1721 14.7899 24.7262 14.8 24.1613C14.8018 23.9937 14.8729 23.4858 14.8641 23.0516C14.8485 22.3932 14.7966 22.0194 14.7951 21.3598C14.7933 21.0306 14.9416 20.8548 14.9416 20.5222V20.2447C14.9328 20.0034 15.1686 19.7847 15.4156 19.5884C15.7686 19.3056 15.9167 18.9905 16.0822 18.5684C16.3561 17.8715 16.5076 17.3236 17.1782 17.3236ZM13.0237 19.9308C13.3064 19.9344 13.5007 20.0358 13.6665 20.2602C13.9352 20.6254 14.1025 20.8963 14.1041 21.3473C14.1041 21.4454 14.0973 21.4988 14.0885 21.5953C14.0441 21.9657 13.9251 22.166 13.7269 22.4809C13.6026 22.6809 13.5995 22.836 13.5007 23.0549C13.3147 23.4528 13.2047 23.8217 13.1892 24.1387C13.17 24.7918 13.1614 25.1604 13.177 25.8133C13.1837 26.1394 13.26 26.3199 13.26 26.6437C13.2634 27.3228 12.8654 28.0117 12.1863 28.0117C11.5143 28.0138 10.8735 27.1243 10.9078 26.1869C10.9234 25.8494 10.9768 25.6634 11.0385 25.3327C11.1386 24.8141 11.2196 24.2264 11.3145 24.0022C11.4434 23.7058 11.4351 23.5991 11.4593 23.5081L11.5368 22.9724C11.5368 22.753 11.6227 22.7068 11.659 22.4913C11.7332 22.0298 11.7864 21.7727 11.9347 21.3266C12.0242 21.0511 12.1503 20.9256 12.245 20.655C12.3843 20.2649 12.6105 19.9308 13.0237 19.9308Z" fill="#4F5461"/>
</svg>
